<svg xmlns="http://www.w3.org/2000/svg" width="1600" height="900" viewBox="0 0 1600 900">
  <defs>
    <radialGradient id="nebula" cx="30%" cy="25%" r="70%">
      <stop offset="0%" stop-color="#38bdf8" stop-opacity="0.18" />
      <stop offset="45%" stop-color="#a855f7" stop-opacity="0.10" />
      <stop offset="100%" stop-color="#0b1020" stop-opacity="0" />
    </radialGradient>
    <radialGradient id="nebula2" cx="75%" cy="20%" r="65%">
      <stop offset="0%" stop-color="#22c55e" stop-opacity="0.06" />
      <stop offset="55%" stop-color="#38bdf8" stop-opacity="0.05" />
      <stop offset="100%" stop-color="#0b1020" stop-opacity="0" />
    </radialGradient>
    <filter id="blur" x="-20%" y="-20%" width="140%" height="140%">
      <feGaussianBlur stdDeviation="18" />
    </filter>
  </defs>

  <rect width="1600" height="900" fill="#0b1020" />
  <rect width="1600" height="900" fill="url(#nebula)" filter="url(#blur)" />
  <rect width="1600" height="900" fill="url(#nebula2)" filter="url(#blur)" />

  <!-- stars -->
  <g fill="#ffffff">
    <circle cx="94" cy="112" r="1.2" opacity="0.8" />
    <circle cx="260" cy="78" r="1.0" opacity="0.65" />
    <circle cx="420" cy="150" r="1.4" opacity="0.75" />
    <circle cx="610" cy="90" r="1.0" opacity="0.55" />
    <circle cx="780" cy="140" r="1.2" opacity="0.7" />
    <circle cx="980" cy="86" r="1.1" opacity="0.6" />
    <circle cx="1120" cy="160" r="1.5" opacity="0.8" />
    <circle cx="1280" cy="95" r="1.0" opacity="0.55" />
    <circle cx="1460" cy="132" r="1.3" opacity="0.75" />

    <circle cx="140" cy="320" r="1.0" opacity="0.6" />
    <circle cx="320" cy="280" r="1.6" opacity="0.85" />
    <circle cx="520" cy="340" r="1.1" opacity="0.65" />
    <circle cx="720" cy="300" r="1.3" opacity="0.75" />
    <circle cx="900" cy="360" r="1.0" opacity="0.55" />
    <circle cx="1090" cy="310" r="1.5" opacity="0.82" />
    <circle cx="1290" cy="350" r="1.1" opacity="0.6" />
    <circle cx="1500" cy="290" r="1.4" opacity="0.78" />

    <circle cx="80" cy="560" r="1.2" opacity="0.7" />
    <circle cx="260" cy="610" r="1.0" opacity="0.55" />
    <circle cx="460" cy="560" r="1.7" opacity="0.88" />
    <circle cx="640" cy="620" r="1.0" opacity="0.55" />
    <circle cx="820" cy="560" r="1.3" opacity="0.75" />
    <circle cx="1010" cy="640" r="1.1" opacity="0.62" />
    <circle cx="1220" cy="590" r="1.6" opacity="0.85" />
    <circle cx="1400" cy="650" r="1.0" opacity="0.52" />

    <circle cx="160" cy="820" r="1.0" opacity="0.55" />
    <circle cx="420" cy="780" r="1.4" opacity="0.8" />
    <circle cx="720" cy="820" r="1.0" opacity="0.55" />
    <circle cx="980" cy="790" r="1.5" opacity="0.84" />
    <circle cx="1260" cy="820" r="1.1" opacity="0.62" />
    <circle cx="1500" cy="790" r="1.3" opacity="0.75" />
  </g>

  <!-- moons -->
  <g opacity="0.85">
    <circle cx="1290" cy="190" r="64" fill="#e2e8f0" opacity="0.06" />
    <circle cx="1345" cy="155" r="28" fill="#e2e8f0" opacity="0.05" />
    <circle cx="1225" cy="165" r="22" fill="#e2e8f0" opacity="0.04" />
  </g>
</svg>
